<svg width="166" height="102" viewBox="0 0 166 102" fill="none" xmlns="http://www.w3.org/2000/svg">
<path d="M25.68 6.96C25.68 4.8 27.48 3 29.64 3C31.92 3 33.72 4.8 33.72 6.96V35.04H49.68V6.96C49.68 4.8 51.48 3 53.76 3C55.92 3 57.72 4.8 57.72 6.96V39.12C57.72 41.28 55.92 43.08 53.76 43.08H29.64C27.48 43.08 25.68 41.28 25.68 39.12V6.96ZM57.72 87.24C57.72 89.4 55.92 91.2 53.76 91.2C51.48 91.2 49.68 89.4 49.68 87.24V59.16H33.72V87.24C33.72 89.4 31.92 91.2 29.64 91.2C27.48 91.2 25.68 89.4 25.68 87.24V55.08C25.68 52.92 27.48 51.12 29.64 51.12H53.76C55.92 51.12 57.72 52.92 57.72 55.08V87.24ZM17.64 87.24C17.64 89.4 15.84 91.2 13.68 91.2C11.4 91.2 9.6 89.4 9.6 87.24V6.96C9.6 4.8 11.4 3 13.68 3C15.84 3 17.64 4.8 17.64 6.96V87.24ZM65.76 6.96C65.76 4.8 67.56 3 69.72 3C72 3 73.8 4.8 73.8 6.96V87.24C73.8 89.4 72 91.2 69.72 91.2C67.56 91.2 65.76 89.4 65.76 87.24V6.96ZM127.355 75.24C124.475 75.24 118.835 76.08 118.835 71.16C118.835 63.36 131.555 71.04 131.555 63.12C131.555 60.72 129.875 59.04 127.355 59.04H113.315C108.035 59.04 108.035 51.12 113.315 51.12H127.355C138.515 51.12 143.675 64.2 135.995 71.76C133.835 73.92 130.835 75.24 127.355 75.24ZM113.315 26.88C108.035 26.88 108.035 18.84 113.315 18.84H127.355C138.515 18.84 143.675 32.16 135.995 39.6C131.915 43.56 127.835 43.08 122.915 43.08C117.635 43.08 117.635 35.04 122.915 35.04C126.155 35.04 131.555 35.88 131.555 30.96C131.555 28.68 129.875 26.88 127.355 26.88H113.315ZM101.195 87.36C101.195 92.64 93.1547 92.64 93.1547 87.36V6.72C93.1547 4.56 94.9547 2.63999 97.1147 2.63999H128.795C145.235 2.63999 156.635 15.6 156.635 30.72C156.635 36.36 155.195 42 151.715 47.04C164.435 65.52 151.355 91.44 128.915 91.44H113.315C108.035 91.44 108.035 83.28 113.315 83.28H128.915C147.275 83.28 154.235 60.84 143.675 50.04C138.995 45 148.595 43.56 148.595 30.96C148.595 19.92 139.835 10.8 128.795 10.8H101.195V87.36Z" fill="white"/>
</svg>
