<svg width="2401" height="1502" viewBox="0 0 2401 1502" fill="none" xmlns="http://www.w3.org/2000/svg">
<g filter="url(#filter0_d_212_114)">
<circle cx="577" cy="982" r="442" stroke="white" stroke-width="140" shape-rendering="crispEdges"/>
</g>
<path d="M728.449 1159H654.719V1010.56H496.027V1159H422.297V806.705H496.027V949.771H654.719V806.705H728.449V1159Z" fill="white"/>
<path d="M728.449 1159V1179H748.449V1159H728.449ZM654.719 1159H634.719V1179H654.719V1159ZM654.719 1010.56H674.719V990.562H654.719V1010.56ZM496.027 1010.56V990.562H476.027V1010.56H496.027ZM496.027 1159V1179H516.027V1159H496.027ZM422.297 1159H402.297V1179H422.297V1159ZM422.297 806.705V786.705H402.297V806.705H422.297ZM496.027 806.705H516.027V786.705H496.027V806.705ZM496.027 949.771H476.027V969.771H496.027V949.771ZM654.719 949.771V969.771H674.719V949.771H654.719ZM654.719 806.705V786.705H634.719V806.705H654.719ZM728.449 806.705H748.449V786.705H728.449V806.705ZM728.449 1139H654.719V1179H728.449V1139ZM674.719 1159V1010.56H634.719V1159H674.719ZM654.719 990.562H496.027V1030.56H654.719V990.562ZM476.027 1010.56V1159H516.027V1010.56H476.027ZM496.027 1139H422.297V1179H496.027V1139ZM442.297 1159V806.705H402.297V1159H442.297ZM422.297 826.705H496.027V786.705H422.297V826.705ZM476.027 806.705V949.771H516.027V806.705H476.027ZM496.027 969.771H654.719V929.771H496.027V969.771ZM674.719 949.771V806.705H634.719V949.771H674.719ZM654.719 826.705H728.449V786.705H654.719V826.705ZM708.449 806.705V1159H748.449V806.705H708.449Z" fill="white"/>
<path d="M1910.3 1159H1754.3V806.705H1907.62C1973.78 806.705 2015.28 840.641 2015.28 894.596C2015.28 933.17 1986.47 965.396 1949.12 971.012V972.965C1996.97 976.627 2032.13 1011.54 2032.13 1058.17C2032.13 1120.18 1985.5 1159 1910.3 1159ZM1828.03 861.637V953.189H1881.01C1920.31 953.189 1942.77 935.855 1942.77 906.07C1942.77 877.75 1923 861.637 1888.57 861.637H1828.03ZM1828.03 1104.07H1891.5C1933.98 1104.07 1956.93 1086 1956.93 1052.31C1956.93 1019.35 1933.25 1001.77 1889.79 1001.77H1828.03V1104.07Z" fill="white"/>
<path d="M1754.3 1159H1734.3V1179H1754.3V1159ZM1754.3 806.705V786.705H1734.3V806.705H1754.3ZM1949.12 971.012L1946.15 951.234L1929.12 953.794V971.012H1949.12ZM1949.12 972.965H1929.12V991.493L1947.59 992.907L1949.12 972.965ZM1828.03 861.637V841.637H1808.03V861.637H1828.03ZM1828.03 953.189H1808.03V973.189H1828.03V953.189ZM1828.03 1104.07H1808.03V1124.07H1828.03V1104.07ZM1828.03 1001.77V981.773H1808.03V1001.77H1828.03ZM1910.3 1139H1754.3V1179H1910.3V1139ZM1774.3 1159V806.705H1734.3V1159H1774.3ZM1754.3 826.705H1907.62V786.705H1754.3V826.705ZM1907.62 826.705C1937.49 826.705 1959.49 834.372 1973.61 845.908C1987.29 857.079 1995.28 873.202 1995.28 894.596H2035.28C2035.28 862.034 2022.53 834.212 1998.91 814.927C1975.74 796.006 1943.91 786.705 1907.62 786.705V826.705ZM1995.28 894.596C1995.28 923.008 1973.98 947.05 1946.15 951.234L1952.09 990.789C1998.97 983.743 2035.28 943.332 2035.28 894.596H1995.28ZM1929.12 971.012V972.965H1969.12V971.012H1929.12ZM1947.59 992.907C1986.13 995.855 2012.13 1023.07 2012.13 1058.17H2052.13C2052.13 1000.01 2007.82 957.398 1950.65 953.023L1947.59 992.907ZM2012.13 1058.17C2012.13 1083.75 2002.73 1103.11 1986.65 1116.44C1970.14 1130.13 1944.66 1139 1910.3 1139V1179C1951.14 1179 1986.57 1168.46 2012.18 1147.24C2038.21 1125.66 2052.13 1094.6 2052.13 1058.17H2012.13ZM1808.03 861.637V953.189H1848.03V861.637H1808.03ZM1828.03 973.189H1881.01V933.189H1828.03V973.189ZM1881.01 973.189C1903.24 973.189 1923.56 968.334 1938.78 956.683C1954.75 944.466 1962.77 926.545 1962.77 906.07H1922.77C1922.77 915.38 1919.57 921.019 1914.48 924.916C1908.64 929.378 1898.08 933.189 1881.01 933.189V973.189ZM1962.77 906.07C1962.77 886.882 1955.84 869.697 1941.25 857.757C1927.24 846.292 1908.59 841.637 1888.57 841.637V881.637C1902.98 881.637 1911.43 885.038 1915.92 888.71C1919.82 891.906 1922.77 896.938 1922.77 906.07H1962.77ZM1888.57 841.637H1828.03V881.637H1888.57V841.637ZM1828.03 1124.07H1891.5V1084.07H1828.03V1124.07ZM1891.5 1124.07C1915.15 1124.07 1936.62 1119.1 1952.55 1106.52C1969.25 1093.32 1976.93 1074.09 1976.93 1052.31H1936.93C1936.93 1064.22 1933.14 1070.87 1927.75 1075.13C1921.58 1080 1910.34 1084.07 1891.5 1084.07V1124.07ZM1976.93 1052.31C1976.93 1030.5 1968.77 1011.52 1951.66 998.682C1935.48 986.546 1913.75 981.773 1889.79 981.773V1021.77C1909.29 1021.77 1921.14 1025.79 1927.66 1030.68C1933.25 1034.88 1936.93 1041.16 1936.93 1052.31H1976.93ZM1889.79 981.773H1828.03V1021.77H1889.79V981.773ZM1808.03 1001.77V1104.07H1848.03V1001.77H1808.03Z" fill="white"/>
<g filter="url(#filter1_d_212_114)">
<circle cx="1885" cy="982" r="442" stroke="white" stroke-width="140" shape-rendering="crispEdges"/>
</g>
<g filter="url(#filter2_d_212_114)">
<line x1="1074.99" y1="957" x2="1423.01" y2="957" stroke="white" stroke-width="140"/>
</g>
<path d="M94.208 362.496C94.208 304.469 98.9867 259.413 108.544 227.328C118.101 195.925 133.12 174.08 153.6 161.792C174.08 149.504 200.704 143.36 233.472 143.36L391.168 143.36C413.013 143.36 430.421 138.24 443.392 128C456.363 118.443 465.579 104.107 471.04 84.992C477.184 66.56 480.256 43.3493 480.256 15.36L600.064 15.36C600.064 43.3493 602.795 66.56 608.256 84.992C614.4 104.107 623.957 118.443 636.928 128C650.581 138.24 667.989 143.36 689.152 143.36L847.872 143.36C872.448 143.36 893.611 146.432 911.36 152.576C929.109 159.403 943.445 171.008 954.368 187.392C965.291 203.776 973.483 225.963 978.944 253.952C984.405 282.624 987.136 318.805 987.136 362.496H874.496C874.496 344.747 872.448 329.387 868.352 316.416C864.256 303.445 857.088 293.205 846.848 285.696C837.291 278.869 822.955 275.456 803.84 275.456H654.336C622.933 275.456 598.016 265.557 579.584 245.76C561.152 225.963 549.205 196.949 543.744 158.72H537.6C532.139 196.949 520.192 225.963 501.76 245.76C483.328 265.557 458.411 275.456 427.008 275.456H277.504C258.389 275.456 244.053 278.869 234.496 285.696C224.256 293.205 217.429 303.445 214.016 316.416C209.92 329.387 207.531 344.747 206.848 362.496L94.208 362.496Z" fill="white"/>
<path d="M1467.21 362.496C1467.21 304.469 1471.99 259.413 1481.54 227.328C1491.1 195.925 1506.12 174.08 1526.6 161.792C1547.08 149.504 1573.7 143.36 1606.47 143.36L1764.17 143.36C1786.01 143.36 1803.42 138.24 1816.39 128C1829.36 118.443 1838.58 104.107 1844.04 84.992C1850.18 66.56 1853.26 43.3493 1853.26 15.36L1973.06 15.36C1973.06 43.3493 1975.79 66.56 1981.26 84.992C1987.4 104.107 1996.96 118.443 2009.93 128C2023.58 138.24 2040.99 143.36 2062.15 143.36L2220.87 143.36C2245.45 143.36 2266.61 146.432 2284.36 152.576C2302.11 159.403 2316.45 171.008 2327.37 187.392C2338.29 203.776 2346.48 225.963 2351.94 253.952C2357.41 282.624 2360.14 318.805 2360.14 362.496H2247.5C2247.5 344.747 2245.45 329.387 2241.35 316.416C2237.26 303.445 2230.09 293.205 2219.85 285.696C2210.29 278.869 2195.95 275.456 2176.84 275.456H2027.34C1995.93 275.456 1971.02 265.557 1952.58 245.76C1934.15 225.963 1922.21 196.949 1916.74 158.72H1910.6C1905.14 196.949 1893.19 225.963 1874.76 245.76C1856.33 265.557 1831.41 275.456 1800.01 275.456H1650.5C1631.39 275.456 1617.05 278.869 1607.5 285.696C1597.26 293.205 1590.43 303.445 1587.02 316.416C1582.92 329.387 1580.53 344.747 1579.85 362.496L1467.21 362.496Z" fill="white"/>
<defs>
<filter id="filter0_d_212_114" x="61" y="470" width="1032" height="1032" filterUnits="userSpaceOnUse" color-interpolation-filters="sRGB">
<feFlood flood-opacity="0" result="BackgroundImageFix"/>
<feColorMatrix in="SourceAlpha" type="matrix" values="0 0 0 0 0 0 0 0 0 0 0 0 0 0 0 0 0 0 127 0" result="hardAlpha"/>
<feOffset dy="4"/>
<feGaussianBlur stdDeviation="2"/>
<feComposite in2="hardAlpha" operator="out"/>
<feColorMatrix type="matrix" values="0 0 0 0 0 0 0 0 0 0 0 0 0 0 0 0 0 0 0.25 0"/>
<feBlend mode="normal" in2="BackgroundImageFix" result="effect1_dropShadow_212_114"/>
<feBlend mode="normal" in="SourceGraphic" in2="effect1_dropShadow_212_114" result="shape"/>
</filter>
<filter id="filter1_d_212_114" x="1369" y="470" width="1032" height="1032" filterUnits="userSpaceOnUse" color-interpolation-filters="sRGB">
<feFlood flood-opacity="0" result="BackgroundImageFix"/>
<feColorMatrix in="SourceAlpha" type="matrix" values="0 0 0 0 0 0 0 0 0 0 0 0 0 0 0 0 0 0 127 0" result="hardAlpha"/>
<feOffset dy="4"/>
<feGaussianBlur stdDeviation="2"/>
<feComposite in2="hardAlpha" operator="out"/>
<feColorMatrix type="matrix" values="0 0 0 0 0 0 0 0 0 0 0 0 0 0 0 0 0 0 0.25 0"/>
<feBlend mode="normal" in2="BackgroundImageFix" result="effect1_dropShadow_212_114"/>
<feBlend mode="normal" in="SourceGraphic" in2="effect1_dropShadow_212_114" result="shape"/>
</filter>
<filter id="filter2_d_212_114" x="1070.99" y="887" width="356.023" height="148" filterUnits="userSpaceOnUse" color-interpolation-filters="sRGB">
<feFlood flood-opacity="0" result="BackgroundImageFix"/>
<feColorMatrix in="SourceAlpha" type="matrix" values="0 0 0 0 0 0 0 0 0 0 0 0 0 0 0 0 0 0 127 0" result="hardAlpha"/>
<feOffset dy="4"/>
<feGaussianBlur stdDeviation="2"/>
<feComposite in2="hardAlpha" operator="out"/>
<feColorMatrix type="matrix" values="0 0 0 0 0 0 0 0 0 0 0 0 0 0 0 0 0 0 0.25 0"/>
<feBlend mode="normal" in2="BackgroundImageFix" result="effect1_dropShadow_212_114"/>
<feBlend mode="normal" in="SourceGraphic" in2="effect1_dropShadow_212_114" result="shape"/>
</filter>
</defs>
</svg>
