<svg width="456" height="512" viewBox="0 0 456 512" fill="none" xmlns="http://www.w3.org/2000/svg">
<g clip-path="url(#clip0_237_107)">
<path fill-rule="evenodd" clip-rule="evenodd" d="M412.443 462.217L227.556 512L42.6655 462.217L0 0H455.113L412.443 462.217Z" fill="#2062AF"/>
<path fill-rule="evenodd" clip-rule="evenodd" d="M227.552 37.4385V472.294L227.972 472.408L377.592 432.12L412.129 37.4385H227.552Z" fill="#3C9CD7"/>
<path fill-rule="evenodd" clip-rule="evenodd" d="M227.39 153.012L95.0586 208.124L99.447 262.689L227.39 207.986L363.486 149.797L369.129 93.9805L227.39 153.012Z" fill="white"/>
<mask id="mask0_237_107" style="mask-type:luminance" maskUnits="userSpaceOnUse" x="94" y="152" width="134" height="111">
<path fill-rule="evenodd" clip-rule="evenodd" d="M94.8281 152.781H227.62V262.919H94.8281V152.781Z" fill="url(#paint0_linear_237_107)"/>
</mask>
<g mask="url(#mask0_237_107)">
<path fill-rule="evenodd" clip-rule="evenodd" d="M95.0586 208.123L99.447 262.688L227.388 207.985V153.012L95.0586 208.123Z" fill="url(#paint1_linear_237_107)"/>
</g>
<mask id="mask1_237_107" style="mask-type:luminance" maskUnits="userSpaceOnUse" x="227" y="93" width="143" height="116">
<path fill-rule="evenodd" clip-rule="evenodd" d="M227.159 93.751H369.359V208.215H227.159V93.751Z" fill="url(#paint2_linear_237_107)"/>
</mask>
<g mask="url(#mask1_237_107)">
<path fill-rule="evenodd" clip-rule="evenodd" d="M369.129 93.9814L227.39 153.012V207.985L363.486 149.797L369.129 93.9814Z" fill="url(#paint3_linear_237_107)"/>
</g>
<path fill-rule="evenodd" clip-rule="evenodd" d="M95.2612 208.124L99.6511 262.689L295.961 263.314L291.57 336.067L226.973 354.253L164.876 338.574L161.113 293.417H103.414L110.941 380.594L227.6 415.088L343.627 381.219L358.679 208.124H95.2612Z" fill="url(#paint4_linear_237_107)"/>
<path fill-rule="evenodd" clip-rule="evenodd" d="M227.39 208.124H95.0601L99.4484 262.689L227.39 263.098V208.124ZM227.39 354.078L226.763 354.253L164.675 338.574L160.912 293.417H103.215L110.74 380.594L227.39 415.088V354.078Z" fill="black" fill-opacity="0.05098"/>
<path fill-rule="evenodd" clip-rule="evenodd" d="M83.1423 93.9814H369.129L363.486 149.798H90.0405L83.1423 93.9814Z" fill="url(#paint5_linear_237_107)"/>
<path fill-rule="evenodd" clip-rule="evenodd" d="M227.39 93.9814H83.1423L90.0405 149.798H227.39V93.9814Z" fill="black" fill-opacity="0.05098"/>
</g>
<defs>
<linearGradient id="paint0_linear_237_107" x1="161.223" y1="153.011" x2="161.223" y2="262.688" gradientUnits="userSpaceOnUse">
<stop stop-color="white" stop-opacity="0"/>
<stop offset="0.388" stop-color="white"/>
<stop offset="1" stop-color="white" stop-opacity="0.831"/>
</linearGradient>
<linearGradient id="paint1_linear_237_107" x1="161.223" y1="153.012" x2="161.223" y2="262.688" gradientUnits="userSpaceOnUse">
<stop stop-color="#D1D3D4"/>
<stop offset="0.388" stop-color="#D1D3D4"/>
<stop offset="1" stop-color="#D1D3D4"/>
</linearGradient>
<linearGradient id="paint2_linear_237_107" x1="298.259" y1="93.9811" x2="298.259" y2="207.985" gradientUnits="userSpaceOnUse">
<stop stop-color="white" stop-opacity="0"/>
<stop offset="0.388" stop-color="white"/>
<stop offset="1" stop-color="white" stop-opacity="0.831"/>
</linearGradient>
<linearGradient id="paint3_linear_237_107" x1="298.259" y1="93.9811" x2="298.259" y2="207.985" gradientUnits="userSpaceOnUse">
<stop stop-color="#D1D3D4"/>
<stop offset="0.388" stop-color="#D1D3D4"/>
<stop offset="1" stop-color="#D1D3D4"/>
</linearGradient>
<linearGradient id="paint4_linear_237_107" x1="95.2617" y1="311.606" x2="358.679" y2="311.606" gradientUnits="userSpaceOnUse">
<stop stop-color="#E8E7E5"/>
<stop offset="1" stop-color="white"/>
</linearGradient>
<linearGradient id="paint5_linear_237_107" x1="83.1419" y1="121.89" x2="369.129" y2="121.89" gradientUnits="userSpaceOnUse">
<stop stop-color="#E8E7E5"/>
<stop offset="1" stop-color="white"/>
</linearGradient>
<clipPath id="clip0_237_107">
<rect width="455.113" height="512" fill="white"/>
</clipPath>
</defs>
</svg>
