<svg width="512" height="512" viewBox="0 0 512 512" fill="none" xmlns="http://www.w3.org/2000/svg">
<g clip-path="url(#clip0_237_203)">
<path d="M502.333 233.186L278.792 9.66778C265.917 -3.20827 245.042 -3.20827 232.167 9.66778L185.75 56.0882L244.625 114.968C258.333 110.343 274 113.426 284.917 124.344C295.875 135.303 298.958 151.138 294.208 164.889L350.958 221.643C364.708 216.893 380.542 219.977 391.5 230.936C406.833 246.27 406.833 271.106 391.5 286.399C376.167 301.733 351.333 301.733 336 286.399C324.458 274.856 321.625 257.938 327.458 243.728L274.542 190.808V330.11C278.292 331.944 281.792 334.444 284.917 337.528C300.25 352.862 300.25 377.698 284.917 393.032C269.583 408.367 244.75 408.367 229.458 393.032C214.125 377.698 214.125 352.862 229.458 337.528C233.25 333.736 237.625 330.902 242.292 328.985V188.391C237.625 186.474 233.25 183.64 229.458 179.848C217.833 168.264 215.042 151.221 221 136.97L162.917 78.8817L9.66675 232.186C-3.20825 245.062 -3.20825 265.939 9.66675 278.815L233.208 502.374C246.083 515.251 266.958 515.251 279.833 502.374L502.333 279.898C515.208 266.98 515.208 246.104 502.333 233.186Z" fill="#F05133"/>
</g>
<defs>
<clipPath id="clip0_237_203">
<rect width="512" height="512" fill="white"/>
</clipPath>
</defs>
</svg>
