<svg width="456" height="512" viewBox="0 0 456 512" fill="none" xmlns="http://www.w3.org/2000/svg">
<g clip-path="url(#clip0_237_126)">
<path d="M449.454 384C436.903 405.835 408.923 413.289 387.088 400.738C382.741 398.24 378.964 395.122 375.806 391.575L271.159 451.992C272.658 456.509 273.468 461.346 273.468 466.372C273.468 491.474 253.072 512 227.84 512C202.608 512 182.212 491.604 182.212 466.372C182.212 461.885 182.851 457.558 184.061 453.461L78.8046 392.694C75.8667 395.772 72.4591 398.49 68.5918 400.738C46.6273 413.289 18.7768 405.835 6.22567 384C-6.32551 362.165 1.12925 334.315 22.9639 321.634C26.8212 319.415 30.8683 317.827 34.9854 316.827V195.203C30.8184 194.203 26.7313 192.605 22.834 190.366C0.999342 177.815 -6.45542 149.835 6.09576 128C18.6469 106.165 46.6273 98.7106 68.4619 111.262C72.3692 113.53 75.8068 116.288 78.7647 119.406L184.081 58.6088C182.836 54.3945 182.206 50.0223 182.212 45.6279C182.212 20.3957 202.608 0 227.84 0C253.072 0 273.468 20.3957 273.468 45.6279C273.468 50.1647 272.808 54.5416 271.579 58.6687L376.865 119.466C379.833 116.318 383.291 113.55 387.218 111.262C409.052 98.7106 436.903 106.165 449.584 128C462.135 149.835 454.68 177.685 432.846 190.366C428.948 192.605 424.861 194.203 420.694 195.203V316.827C424.811 317.827 428.859 319.415 432.716 321.634C454.68 334.315 462.135 362.165 449.454 384ZM56.6902 316.877C57.2998 317.027 57.8893 317.187 58.4889 317.367L196.322 78.6447C195.872 78.215 195.443 77.7953 195.013 77.3456L89.5171 138.263C92.7948 149.745 91.6056 162.466 85.2002 173.628C78.7747 184.81 68.302 192.215 56.6902 195.103V316.877ZM77.3057 328.179C80.3735 331.107 83.0916 334.515 85.3301 338.372C87.5485 342.229 89.1374 346.277 90.1367 350.404H365.543C366.542 346.277 368.131 342.229 370.35 338.372C372.523 334.59 375.229 331.141 378.384 328.129L240.591 89.4571C236.544 90.6363 232.267 91.2558 227.84 91.2558C223.423 91.2558 219.166 90.6363 215.129 89.4771L77.3057 328.179ZM397.221 317.347C397.81 317.177 398.39 317.017 398.99 316.867V195.103C387.378 192.215 376.905 184.81 370.48 173.628C364.084 162.496 362.885 149.795 366.153 138.333L260.617 77.4056C260.217 77.8153 259.807 78.215 259.388 78.6147L397.221 317.347ZM366.432 375.096C366.113 374.107 365.833 373.108 365.593 372.108H90.0767C89.9368 372.698 89.7769 373.288 89.607 373.867L194.963 434.704C203.267 426.09 214.919 420.744 227.84 420.744C241.22 420.744 253.242 426.48 261.586 435.634L366.432 375.096Z" fill="#E535AB"/>
</g>
<defs>
<clipPath id="clip0_237_126">
<rect width="455.68" height="512" fill="white"/>
</clipPath>
</defs>
</svg>
