<svg width="452" height="512" viewBox="0 0 452 512" fill="none" xmlns="http://www.w3.org/2000/svg">
<g clip-path="url(#clip0_237_128)">
<path fill-rule="evenodd" clip-rule="evenodd" d="M451.458 0L410.333 460.75L225.458 512L41.0833 460.833L0 0H451.458Z" fill="#E44D26"/>
<path fill-rule="evenodd" clip-rule="evenodd" d="M225.708 472.834L375.125 431.417L410.25 37.667H225.708V472.834Z" fill="#F16529"/>
<path fill-rule="evenodd" clip-rule="evenodd" d="M145.792 150.708H225.75V94.208H84L85.3333 109.375L99.2083 265.125H225.667V208.583H150.958L145.792 150.708ZM158.5 293.375H101.792L109.708 382.125L225.5 414.25L225.75 414.166V355.375L225.5 355.458L162.542 338.458L158.5 293.375Z" fill="#EBEBEB"/>
<path fill-rule="evenodd" clip-rule="evenodd" d="M225.542 265.125H295.125L288.583 338.417L225.542 355.417V414.209L341.417 382.084L342.25 372.542L355.542 223.75L356.917 208.584H225.542V265.125ZM225.542 150.584V150.709H362.042L363.167 138L365.75 109.334L367.083 94.167H225.542V150.584Z" fill="white"/>
</g>
<defs>
<clipPath id="clip0_237_128">
<rect width="451.458" height="512" fill="white"/>
</clipPath>
</defs>
</svg>
