<svg width="378" height="512" viewBox="0 0 378 512" fill="none" xmlns="http://www.w3.org/2000/svg">
<g clip-path="url(#clip0_237_134)">
<path fill-rule="evenodd" clip-rule="evenodd" d="M121.625 395.958C121.625 395.958 102.042 407.333 135.542 411.166C176.125 415.791 196.833 415.125 241.542 406.666C241.542 406.666 253.292 414.041 269.708 420.416C169.5 463.416 42.8749 417.958 121.625 395.958Z" fill="#5382A1"/>
<path fill-rule="evenodd" clip-rule="evenodd" d="M109.375 339.917C109.375 339.917 87.4167 356.167 120.958 359.625C164.292 364.084 198.542 364.459 257.75 353.042C257.75 353.042 265.958 361.334 278.833 365.875C157.625 401.334 22.625 368.667 109.375 339.917Z" fill="#5382A1"/>
<path fill-rule="evenodd" clip-rule="evenodd" d="M212.625 244.833C237.333 273.25 206.125 298.833 206.125 298.833C206.125 298.833 268.833 266.458 240.042 225.916C213.125 188.125 192.5 169.333 304.167 104.583C304.167 104.583 128.917 148.333 212.625 244.833Z" fill="#E76F00"/>
<path fill-rule="evenodd" clip-rule="evenodd" d="M345.167 437.417C345.167 437.417 359.625 449.333 329.208 458.583C271.375 476.125 88.4167 481.417 37.5833 459.292C19.3333 451.333 53.5833 440.333 64.3333 438C75.5833 435.542 82 436 82 436C61.6667 421.708 -49.3333 464.083 25.625 476.25C230 509.375 398.167 461.333 345.167 437.417Z" fill="#5382A1"/>
<path fill-rule="evenodd" clip-rule="evenodd" d="M131.042 281.833C131.042 281.833 38.0001 303.917 98.0834 311.958C123.458 315.375 174.042 314.583 221.167 310.625C259.667 307.375 298.333 300.458 298.333 300.458C298.333 300.458 284.75 306.292 274.917 313C180.417 337.833 -2.12493 326.292 50.4167 300.875C94.8751 279.375 131.042 281.833 131.042 281.833Z" fill="#5382A1"/>
<path fill-rule="evenodd" clip-rule="evenodd" d="M297.958 375.125C394 325.208 349.583 277.25 318.583 283.708C311 285.291 307.583 286.666 307.583 286.666C307.583 286.666 310.417 282.25 315.792 280.333C377.125 258.791 424.292 343.916 296 377.666C296.042 377.666 297.5 376.333 297.958 375.125Z" fill="#5382A1"/>
<path fill-rule="evenodd" clip-rule="evenodd" d="M240.042 0C240.042 0 293.25 53.2083 189.583 135.042C106.458 200.667 170.625 238.125 189.542 280.875C141.042 237.125 105.417 198.583 129.292 162.708C164.375 110.042 261.5 84.5417 240.042 0Z" fill="#E76F00"/>
<path fill-rule="evenodd" clip-rule="evenodd" d="M140.458 510.375C232.667 516.291 374.25 507.083 377.625 463.458C377.625 463.458 371.167 480 301.417 493.125C222.708 507.916 125.667 506.208 68.0833 496.708C68.0833 496.75 79.8749 506.5 140.458 510.375Z" fill="#5382A1"/>
</g>
<defs>
<clipPath id="clip0_237_134">
<rect width="377.625" height="512" fill="white"/>
</clipPath>
</defs>
</svg>
