<svg width="752" height="512" viewBox="0 0 752 512" fill="none" xmlns="http://www.w3.org/2000/svg">
<g clip-path="url(#clip0_237_423)">
<path d="M180.763 466.473H151.758C150.779 417.519 147.964 371.338 143.314 327.932L98.8875 466.473H76.7969L32.8605 327.932C29.6377 369.503 27.5979 415.683 26.7412 466.473H0C1.7134 404.668 5.99689 346.718 12.8505 292.624H48.9542L90.8101 420.333L132.911 292.624H167.301C174.807 355.938 179.254 413.888 180.641 466.473H180.763Z" fill="#00758F"/>
<path d="M306.637 338.213C294.847 402.384 279.263 449.094 259.886 478.344C244.832 500.823 228.31 512.041 210.319 512C204.206 511.706 198.205 510.253 192.635 507.717V492.235C196.692 492.771 200.782 493.016 204.873 492.969C212.268 493.314 219.514 490.818 225.128 485.993C227.952 483.677 230.24 480.777 231.835 477.491C233.43 474.206 234.295 470.614 234.368 466.962C233.178 456.839 230.774 446.895 227.209 437.345L195.388 338.213H223.843L246.729 412.379C251.869 429.227 254.011 440.976 253.154 447.626C266.097 412.293 274.886 375.576 279.345 338.213H306.637Z" fill="#00758F"/>
<path d="M712.59 466.411H717.179V448.727H723.299V445.116H706.409V448.727H712.529V466.411H712.59ZM747.592 466.411H751.937V445.116H745.389L740.065 459.68L734.313 445.116H728.194V466.411H732.294V450.256L738.413 466.411H741.534L747.653 450.256V466.411H747.592Z" fill="#F29111"/>
<path fill-rule="evenodd" clip-rule="evenodd" d="M617.064 309.136C598.832 307.971 580.561 310.722 563.481 317.205C559.366 318.9 552.749 318.9 552.184 324.145C554.363 326.324 554.605 329.955 556.622 333.022C560.361 339.435 565.195 345.144 570.905 349.888C576.715 354.326 582.526 358.764 588.659 362.638C599.391 369.255 611.576 373.128 621.986 379.826C628.119 383.699 634.171 388.622 640.304 392.818C643.29 394.997 645.227 398.628 649.1 400V399.193C647.163 396.691 646.599 393.06 644.662 390.316L636.592 382.247C628.486 371.515 618.8 362.074 607.864 354.245C598.988 348.112 579.621 339.8 576.07 330.036L575.505 329.471C581.976 328.539 588.35 327.027 594.549 324.952C603.991 322.531 612.545 323.096 622.148 320.595C626.586 319.465 631.024 318.093 635.463 316.721V314.22C630.459 309.216 626.909 302.599 621.663 298.08C607.342 285.601 592.101 274.218 576.07 264.027C567.516 258.539 556.461 254.908 547.342 250.227C544.033 248.533 538.546 247.726 536.609 244.901C532.059 238.231 528.244 231.088 525.231 223.598C517.161 208.427 509.092 191.319 502.636 175.18C498.611 164.186 493.949 153.435 488.676 142.982C462.995 99.3494 425.921 63.5308 381.43 39.3676C370.25 33.928 358.347 30.1232 346.085 28.0701C339.226 28.0701 332.286 27.1825 325.427 26.9404C320.943 24.032 316.682 20.7953 312.677 17.2568C296.537 7.25043 256.189 -14.2955 244.73 14.1903C237.306 32.2663 255.786 49.9389 262.161 59.0576C267.488 65.5097 272.19 72.454 276.202 79.7965C278.139 84.5576 278.704 89.5608 280.64 94.4833C284.692 107.129 289.488 119.524 295.004 131.604C297.994 137.577 301.419 143.322 305.253 148.792C307.431 151.858 311.305 153.23 312.112 158.233C309.081 164.828 306.964 171.806 305.817 178.972C295.811 210.283 299.685 249.017 313.887 272.015C318.245 278.955 328.816 294.207 342.857 288.155C355.284 283.232 352.541 267.416 356.172 253.617C356.979 250.227 356.172 248.049 358.028 245.547V246.031C361.902 254.101 366.098 261.283 369.406 269.03C379.201 283.449 391.307 296.154 405.236 306.634C411.853 311.637 417.098 320.191 425.41 323.258V322.774H424.845C422.973 320.646 420.83 318.774 418.47 317.205C413.227 312.074 408.422 306.514 404.106 300.582C392.395 284.675 382.055 267.803 373.199 250.147C368.761 241.512 365.129 232.071 361.337 223.517C359.642 220.208 359.642 215.447 356.898 213.591C351.687 219.222 347.163 225.453 343.422 232.151C338.801 245.642 336.085 259.711 335.352 273.952C334.223 273.952 334.788 273.952 334.223 274.517C325.427 272.258 322.36 263.139 319.052 255.392C310.445 231.633 309.569 205.761 316.55 181.474C318.487 175.664 326.799 157.265 323.409 151.858C321.795 146.532 316.227 143.789 313.242 139.351C309.36 133.8 306.036 127.881 303.316 121.678C296.699 106.104 293.31 88.9959 286.208 73.2601C282.172 65.7913 277.53 58.6661 272.329 51.9563C266.583 45.2846 261.502 38.0684 257.158 30.4103C255.786 27.3438 253.849 22.3407 256.028 19.0321C256.196 18.0902 256.664 17.2278 257.362 16.5734C258.06 15.919 258.95 15.5077 259.901 15.4008C263.533 12.3343 273.7 16.2077 277.332 17.9024C287.155 21.6131 296.522 26.4322 305.253 32.2663C309.126 35.01 313.322 40.336 318.164 41.6271H323.974C332.851 43.5638 342.776 42.192 351.088 44.6936C365.105 49.3593 378.473 55.7857 390.872 63.8186C427.459 87.2114 457.174 119.906 476.975 158.556C480.364 164.851 481.736 170.741 485.044 177.359C490.854 190.916 498.036 204.795 503.847 217.707C508.949 230.786 515.528 243.241 523.456 254.827C527.652 260.637 544.195 263.704 551.619 266.77C558.134 269.115 564.518 271.809 570.744 274.84C580.105 280.65 589.465 287.267 598.342 293.642C602.7 297.031 616.579 303.891 617.386 309.781L617.064 309.136Z" fill="#00758F"/>
<path fill-rule="evenodd" clip-rule="evenodd" d="M313.032 51.8815C310.119 51.852 307.215 52.2226 304.403 52.983V53.4113H304.832C306.87 56.4226 309.119 59.2855 311.563 61.9783C313.215 65.3439 314.684 68.7095 316.336 72.0751L316.764 71.6468C318.319 70.4132 319.537 68.8078 320.307 66.979C321.077 65.1501 321.374 63.1567 321.17 61.1828C319.946 59.7142 319.702 58.2456 318.661 56.7769C317.621 55.3083 314.684 53.6561 313.032 51.9427V51.8815Z" fill="#00758F"/>
<path fill-rule="evenodd" clip-rule="evenodd" d="M485.565 431.654C478.589 420.333 475.039 402.159 475.039 377.131C475.039 333.317 488.318 311.431 514.876 311.471C520.918 311.059 526.958 312.299 532.348 315.058C537.738 317.818 542.275 321.994 545.472 327.137C552.53 338.437 556.038 356.468 555.998 381.231C555.998 425.371 542.739 447.421 516.222 447.38C510.182 447.78 504.147 446.534 498.76 443.775C493.372 441.017 488.833 436.849 485.626 431.715L485.565 431.654ZM588.797 470.634L556.854 454.907C559.743 452.571 562.406 449.969 564.809 447.136C578.353 431.185 585.125 407.585 585.125 376.336C585.125 318.814 562.688 290.054 517.813 290.054C508.075 289.531 498.347 291.244 489.373 295.063C480.4 298.881 472.419 304.704 466.044 312.083C452.541 328.075 445.789 351.593 445.789 382.638C445.789 413.684 451.786 436.121 463.78 449.951C474.672 462.801 491.194 469.287 513.285 469.287C520.96 469.355 528.604 468.324 535.987 466.228L577.476 490.399L588.797 470.878V470.634Z" fill="#F29111"/>
<path d="M692.825 466.473H610.398V292.624H638.118V445.055H692.825V466.473Z" fill="#F29111"/>
<path d="M433.734 418.253C433.915 425.132 432.558 431.964 429.763 438.252C426.968 444.54 422.806 450.126 417.58 454.602C405.357 464.504 389.904 469.538 374.194 468.737C356.519 468.566 339.316 463.017 324.873 452.827L332.338 437.896C343.776 444.158 356.513 447.677 369.543 448.176C378.245 448.664 386.86 446.23 394.02 441.262C396.995 439.001 399.398 436.074 401.034 432.715C402.671 429.357 403.497 425.661 403.444 421.925C403.444 411.644 396.285 402.833 383.067 395.428C370.828 388.697 346.351 374.745 346.351 374.745C340.102 370.917 334.977 365.505 331.495 359.057C328.013 352.608 326.298 345.354 326.525 338.029C326.305 331.596 327.52 325.194 330.082 319.288C332.643 313.382 336.486 308.12 341.333 303.884C351.957 294.912 365.564 290.26 379.457 290.85C395.037 290.719 410.306 295.212 423.332 303.761L417.029 318.203C406.523 313.542 395.172 311.084 383.679 310.982C376.303 310.399 368.974 312.58 363.118 317.101C360.701 319.126 358.754 321.653 357.412 324.506C356.07 327.36 355.365 330.471 355.347 333.624C355.347 343.904 362.69 352.838 376.213 360.365C388.452 367.035 413.418 381.293 413.418 381.293C427.003 390.9 433.734 401.18 433.734 418.008V418.253Z" fill="#F29111"/>
</g>
<defs>
<clipPath id="clip0_237_423">
<rect width="751.937" height="512" fill="white"/>
</clipPath>
</defs>
</svg>
