<svg width="455" height="512" viewBox="0 0 455 512" fill="none" xmlns="http://www.w3.org/2000/svg">
<g clip-path="url(#clip0_237_161)">
<path fill-rule="evenodd" clip-rule="evenodd" d="M285.125 362.834C203.042 362.834 185.833 325.167 185.833 293.542C185.833 290.542 188.25 288.125 191.25 288.125H215.5C218.167 288.125 220.417 290.084 220.833 292.709C224.5 317.417 235.375 329.875 285.042 329.875C324.583 329.875 341.375 320.959 341.375 299.959C341.375 287.875 336.583 278.917 275.167 272.917C223.792 267.834 192.042 256.542 192.042 215.417C192.042 177.584 223.958 155.042 277.458 155.042C337.542 155.042 367.292 175.875 371.042 220.709C371.167 222.25 370.625 223.75 369.583 224.875C368.542 225.959 367.083 226.625 365.583 226.625H341.25C338.708 226.625 336.5 224.834 336 222.417C330.125 196.459 315.958 188.125 277.375 188.125C234.208 188.125 229.208 203.167 229.208 214.417C229.208 228.084 235.125 232.084 293.375 239.792C351.042 247.459 378.417 258.25 378.417 298.792C378.417 339.667 344.333 363.084 284.875 363.084L285.125 362.834ZM227.167 512C220.292 512 213.5 510.209 207.5 506.75L144.875 469.667C135.5 464.417 140.083 462.584 143.167 461.5C155.625 457.125 158.167 456.167 171.5 448.584C172.917 447.792 174.75 448.084 176.167 448.917L224.292 477.459C226.042 478.417 228.5 478.417 230.125 477.459L417.75 369.167C419.5 368.167 420.625 366.167 420.625 364.084V147.625C420.625 145.459 419.5 143.542 417.708 142.459L230.125 34.2503C228.375 33.2087 226.083 33.2087 224.333 34.2503L36.8333 142.459C35 143.5 33.875 145.5 33.875 147.584V364.084C33.875 366.167 35 368.125 36.7917 369.125L88.1667 398.792C116.042 412.75 133.125 396.292 133.125 379.792V166.084C133.125 163.042 135.5 160.667 138.583 160.667H162.333C165.292 160.667 167.75 163 167.75 166.084V379.875C167.75 417.084 147.458 438.417 112.208 438.417C101.375 438.417 92.7917 438.417 68.9583 426.667L19.6667 398.292C7.5 391.25 0 378.125 0 364.084V147.584C0 133.5 7.5 120.334 19.6667 113.375L207.458 5.04199C219.333 -1.66634 235.125 -1.66634 246.917 5.04199L434.5 113.417C446.625 120.417 454.167 133.5 454.167 147.625V364.125C454.167 378.167 446.625 391.25 434.5 398.334L246.917 506.667C240.917 510.125 234.083 511.917 227.167 511.917V512Z" fill="#689F63"/>
</g>
<defs>
<clipPath id="clip0_237_161">
<rect width="454.167" height="512" fill="white"/>
</clipPath>
</defs>
</svg>
