<svg width="494" height="512" viewBox="0 0 494 512" fill="none" xmlns="http://www.w3.org/2000/svg">
<g clip-path="url(#clip0_237_164)">
<path d="M473.042 314.793C412 327.376 407.792 306.709 407.792 306.709C472.25 211.084 499.167 89.6675 475.917 59.9592C412.5 -21.0825 302.708 17.2508 300.875 18.2508L300.25 18.3342C288.208 15.8342 274.708 14.3342 259.542 14.0842C231.917 13.6258 210.958 21.3342 195.083 33.3758C195.083 33.3758 -0.79163 -47.3325 8.33337 134.876C10.2917 173.626 63.875 428.126 127.833 351.251C151.208 323.126 173.792 299.376 173.792 299.376C185 306.834 198.458 310.626 212.5 309.251L213.583 308.334C213.25 311.834 213.417 315.251 214 319.292C197.542 337.709 202.375 340.917 169.417 347.709C136.083 354.584 155.667 366.793 168.458 370.001C183.958 373.876 219.792 379.376 244.042 345.459L243.083 349.334C249.542 354.501 254.083 382.959 253.333 408.751C252.583 434.543 252.083 452.251 257.167 466.084C262.25 479.918 267.333 511.043 310.625 501.751C346.792 494.001 365.542 473.918 368.167 440.418C370 416.584 374.208 420.126 374.458 398.834L377.833 388.751C381.708 356.459 378.458 346.043 400.75 350.876L406.167 351.334C422.583 352.084 444.042 348.709 456.625 342.834C483.667 330.293 499.792 309.251 473.042 314.793Z" fill="#336791"/>
<path d="M239.125 333.084C239.25 328.917 242.708 325.626 246.875 325.751C251.042 325.876 254.333 329.334 254.208 333.501C253.333 364.459 253.5 395.501 254.625 420.334C255.667 442.709 257.458 459.542 259.958 465.792C262.625 472.417 266.75 482.209 274.667 488.834C282.375 495.334 294.25 499.292 313.167 495.251C329.708 491.709 340.833 486.667 348.25 478.959C355.583 471.334 359.75 460.542 362.333 445.459C364.25 434.459 366.875 415.251 369.25 396.126C372.25 372.209 375 348.042 375.583 340.251C375.875 336.084 379.5 332.959 383.667 333.292C387.833 333.584 390.958 337.209 390.625 341.376C390.042 348.959 387.292 373.417 384.167 398.042C381.667 417.792 379 437.376 377.167 448.001C374.042 466.042 368.75 479.334 359.042 489.417C349.375 499.459 335.833 505.792 316.208 510.001C291.833 515.209 275.75 509.501 264.875 500.334C254.167 491.334 249.083 479.417 245.875 471.376C242.708 463.501 240.583 444.917 239.458 420.959C238.375 395.917 238.25 364.459 239.125 333.084Z" fill="white"/>
<path d="M197.542 25.0424C201.417 26.584 203.292 30.959 201.75 34.834C200.208 38.709 195.833 40.584 191.958 39.0424C191.458 38.834 6.87504 -36.5826 15.4167 133.751C16.4584 154.792 33.125 240.876 58.4584 300.917C66.4584 319.834 75.25 336.001 84.5834 346.334C92.375 355.001 100.333 359.167 108 356.417C112.25 354.876 116.792 351.417 121.583 345.667C145.042 317.459 166.375 295.167 166.458 295.126C169.333 292.126 174.083 292.001 177.083 294.876C180.083 297.751 180.208 302.501 177.333 305.501C177.292 305.542 156.458 327.251 133.167 355.292C126.542 363.292 119.792 368.251 113 370.667C98.5834 375.792 85.3334 369.792 73.3334 356.459C62.8334 344.834 53.1667 327.209 44.5834 306.751C18.5417 245.126 1.4167 156.292 0.33337 134.459C-9.37496 -59.541 196.958 24.7924 197.542 25.0424Z" fill="white"/>
<path d="M304.583 23.8754L293.375 11.6254C294.292 11.292 295.208 11.0004 296.125 10.7504C298.583 9.95868 301.25 9.16702 304.125 8.33368C308.333 7.08368 314.5 5.45868 322.042 4.00035C359.667 -3.29132 433.083 -7.24965 481.458 54.5837C495.125 72.042 494 115.25 479.875 166.417C467.375 211.709 444.833 263.917 413.667 310.167C411.333 313.625 406.625 314.542 403.167 312.209C399.708 309.875 398.792 305.167 401.125 301.709C431.375 256.834 453.208 206.209 465.333 162.375C478.25 115.625 480.292 77.5004 469.583 63.8337C426.167 8.37535 359.208 12.1254 324.833 18.8337C317.792 20.2087 312.167 21.667 308.333 22.792L304.583 23.8754Z" fill="white"/>
<path d="M414.542 303.626C414.625 303.834 414.667 304.042 414.708 304.251C414.708 304.292 417.292 317.751 471.083 306.667C478.708 305.084 484.125 305.417 487.625 307.126C492.167 309.292 494.125 312.917 493.833 317.584C493.667 320.417 492.333 323.459 490.125 326.501C485.042 333.459 473.417 342.459 459.292 349.001C448.708 353.917 432.583 357.209 417.792 358.042C409.083 358.542 400.75 358.209 394.125 356.876C385.792 355.209 379.458 351.751 376.833 346.126C376.125 344.626 375.708 343.001 375.625 341.251C373.958 312.001 388.208 306.876 398.167 304.042C397.125 302.542 395.708 300.751 394.125 298.792C389.083 292.501 382.625 284.417 377.5 272.042C376.708 270.167 374.417 266.001 371.333 260.501C358.292 237.126 332.625 191.042 337.667 159.584C341.25 137.126 358.375 122.209 401.167 126.667L400.75 125.417C398.708 119.626 395.458 112.042 390.75 103.542C372.083 69.5422 331.375 22.1255 259.083 20.9589C148.792 19.1672 152.417 158.251 152.417 158.626C152.5 162.792 149.167 166.209 145 166.292C140.833 166.376 137.417 163.042 137.333 158.876C137.333 158.417 133.25 3.83385 259.292 5.87552C338.875 7.16718 383.542 59.0839 403.958 96.2505C409.042 105.501 412.667 113.917 414.958 120.459C417.542 127.792 418.5 133.542 418.083 136.084C417.5 139.834 415.417 142.167 411.833 142.876L409.125 142.917C369.875 136.626 355.042 146.251 352.542 161.917C348.333 188.292 372.333 231.292 384.5 253.167C387.792 259.084 390.292 263.584 391.417 266.334C395.75 276.792 401.417 283.876 405.833 289.459C409.958 294.501 413.208 298.584 414.542 303.626ZM474.125 321.417C434.25 329.667 415.667 323.626 407.125 317.126C405.958 317.501 404.708 317.834 403.375 318.209C398.042 319.709 389.75 322.042 390.625 339.959C391.25 340.626 393.583 341.334 397 342.042C402.458 343.126 409.458 343.376 416.917 342.959C429.958 342.209 444 339.417 452.958 335.251C462.167 330.959 469.875 325.792 474.625 321.292L474.125 321.417Z" fill="white"/>
<path d="M219.167 323.625C216.083 327.083 213.542 330.292 211.375 333.042C202.125 344.792 199.25 348.458 170.542 354.375C165.375 355.458 161.875 356.5 159.708 357.542C162.375 359.458 166.375 361.042 169.875 361.917C176.958 363.708 188.708 365.833 201.292 363.708C213.542 361.625 226.75 355.333 237.458 340.333C237.792 339.833 238.083 339.292 238.333 338.75C239.417 336.125 239.167 332.833 238.083 329.708C236.917 326.375 234.792 323.458 232.333 321.667C231.75 321.25 231.167 320.917 230.542 320.667L230.167 320.5C228.625 319.875 226.917 319.208 225.458 319.333C223.875 319.5 221.875 320.583 219.167 323.625ZM199.5 323.667C201.542 321.083 203.917 318.083 207.5 314.042C207.792 313.667 208.125 313.292 208.458 312.958C214 306.958 219.292 304.708 224.167 304.292C229 303.875 232.75 305.25 235.917 306.583C236.042 306.625 236.167 306.667 236.333 306.75C237.958 307.417 239.542 308.333 241.083 309.417C246.042 312.958 250.125 318.583 252.333 324.708C254.583 331.083 254.958 338.208 252.292 344.542C251.625 346.125 250.792 347.625 249.75 349.083C236.25 368 219.417 375.917 203.833 378.583C188.542 381.208 174.625 378.667 166.208 376.583C160.083 375.042 152.5 371.625 148.042 367.458C145.417 365 143.625 362.083 143.125 358.833C142.542 354.958 143.708 351.208 147.25 347.875C150.667 344.667 157 341.75 167.458 339.583C190.75 334.792 192.833 332.167 199.5 323.667Z" fill="white"/>
<path d="M219.958 317.084C220.583 321.209 217.75 325.084 213.625 325.668C209.5 326.251 205.625 323.459 205.042 319.334C204.875 318.334 204.792 317.334 204.708 316.293C202.208 316.209 199.75 316.043 197.333 315.668C181.167 313.418 166.542 305.251 155.542 293.168C144.667 281.251 137.333 265.501 135.625 247.918C135 241.668 135.125 235.168 136.042 228.626C139.75 202.209 138.333 178.584 137.625 166.334C137.417 163.001 137.292 160.501 137.292 158.584C137.333 153.626 149.792 142.709 166.208 135.959C173.625 132.918 181.917 130.376 190.125 129.126C198.792 127.834 207.542 127.959 215.417 130.418C227.75 134.293 237.542 143.418 241.292 160.876C254.833 223.418 242.708 250.293 233.25 271.334C231.625 274.959 230.083 278.376 228.917 281.459C228.875 281.668 228.792 281.834 228.708 282.043C224.75 292.709 230.542 277.084 227.542 285.043C222.833 297.876 218.708 308.876 219.958 317.084ZM206.333 301.251C207.958 294.543 210.625 287.459 213.458 279.834C215.708 273.834 209.833 289.543 214.542 276.834C214.625 276.626 214.708 276.418 214.792 276.209C216.25 272.334 217.833 268.876 219.458 265.209C228.042 246.168 238.958 221.834 226.5 164.168C224.083 152.959 218.208 147.209 210.875 144.918C205.375 143.209 198.917 143.168 192.292 144.168C185.208 145.251 178.125 147.418 171.792 150.001C160.667 154.543 152.25 158.376 152.25 158.709C152.25 159.793 152.375 162.251 152.583 165.543C153.333 178.251 154.792 202.876 150.917 230.793C150.167 236.251 150.042 241.543 150.542 246.626C151.917 260.793 157.833 273.501 166.625 283.126C175.292 292.626 186.75 299.084 199.333 300.834C201.667 301.084 204 301.251 206.333 301.251Z" fill="white"/>
<path d="M194.042 157.583C193.708 160.042 198.583 166.667 204.917 167.542C211.25 168.417 216.708 163.25 217.042 160.792C217.375 158.333 212.5 155.583 206.167 154.708C199.833 153.833 194.375 155.125 194.042 157.583Z" fill="white"/>
<path d="M196.542 157.917C196.458 158.459 197.333 159.875 198.792 161.417C200.417 163.125 202.708 164.667 205.25 165.042H205.292C207.792 165.375 210.125 164.542 211.875 163.334C213.5 162.25 214.5 161.084 214.625 160.417C214.625 160.292 214 159.917 212.958 159.334C211.25 158.375 208.75 157.584 205.875 157.167H205.792C202.958 156.792 200.333 156.875 198.458 157.334C197.292 157.625 196.542 157.834 196.542 157.917ZM195.167 164.875C192.708 162.292 191.333 159.209 191.583 157.292V157.209C191.917 154.834 194.042 153.209 197.292 152.417C199.75 151.834 203 151.709 206.458 152.167C206.5 152.167 206.542 152.167 206.583 152.167C210.083 152.667 213.208 153.667 215.417 154.917C218.333 156.542 219.958 158.75 219.625 161.084C219.375 162.917 217.5 165.584 214.708 167.459C212.083 169.25 208.5 170.542 204.625 170H204.583C200.75 169.5 197.458 167.292 195.167 164.875Z" fill="white"/>
<path d="M387.542 152.542C387.875 155.001 383 161.626 376.667 162.501C370.292 163.376 364.875 158.209 364.542 155.751C364.208 153.292 369.083 150.542 375.458 149.667C381.75 148.792 387.167 150.084 387.542 152.542Z" fill="white"/>
<path d="M388.75 152.375C388.958 153.959 387.708 156.667 385.5 159C383.375 161.25 380.292 163.292 376.792 163.75H376.75C373.25 164.209 370 163.042 367.583 161.417C365.083 159.75 363.458 157.459 363.208 155.917C362.958 154.125 364.333 152.375 366.792 151C368.875 149.834 371.833 148.875 375.167 148.417C378.5 147.959 381.625 148.084 383.958 148.625C386.708 149.25 388.5 150.542 388.75 152.375ZM383.667 157.25C385.375 155.459 386.375 153.625 386.25 152.709C386.167 152.042 385.083 151.459 383.417 151.042C381.375 150.542 378.583 150.459 375.542 150.875C372.542 151.292 369.875 152.167 368.042 153.167C366.542 154 365.667 154.875 365.75 155.542C365.875 156.459 367.125 158 369.042 159.292C371 160.625 373.667 161.584 376.5 161.209H376.542C379.333 160.834 381.875 159.125 383.667 157.25Z" fill="white"/>
<path d="M402.708 135.792C402.5 131.626 405.708 128.084 409.875 127.876C414.042 127.667 417.583 130.876 417.792 135.042C418.417 146.709 417 155.959 415.5 165.667C414.375 172.917 413.208 180.501 412.958 188.959C412.708 197.001 413.75 205.917 414.875 215.084C417.792 239.209 420.875 265.042 402.958 291.751C400.625 295.209 395.958 296.126 392.5 293.834C389.042 291.501 388.125 286.834 390.417 283.376C405.167 261.334 402.417 238.376 399.833 216.876C398.667 207.292 397.542 197.959 397.875 188.542C398.167 178.792 399.375 171.001 400.542 163.459C401.958 154.376 403.25 145.792 402.708 135.792Z" fill="white"/>
</g>
<defs>
<clipPath id="clip0_237_164">
<rect width="493.875" height="512" fill="white"/>
</clipPath>
</defs>
</svg>
