<svg width="512" height="512" viewBox="0 0 512 512" fill="none" xmlns="http://www.w3.org/2000/svg">
<path d="M256 301.6C281.184 301.6 301.6 281.185 301.6 256C301.6 230.816 281.184 210.4 256 210.4C230.816 210.4 210.4 230.816 210.4 256C210.4 281.185 230.816 301.6 256 301.6Z" fill="#61DAFB"/>
<path d="M429.2 180.8C420.4 177.6 411.2 174.4 401.6 171.6C404 162 406 152.4 407.6 143.2C416 90.4004 406.8 53.2004 381.2 38.8004C373.6 34.4004 365.2 32.4004 355.6 32.4004C327.6 32.4004 292 53.2004 256 88.0004C220 53.2004 184.4 32.4004 156.4 32.4004C146.8 32.4004 138.4 34.4004 130.8 38.8004C105.2 53.6004 96.0001 90.8004 104.4 143.2C106 152.4 108 162 110.4 171.6C100.8 174.4 91.6001 177.2 82.8001 180.8C32.8001 200 5.6001 226.4 5.6001 256C5.6001 285.6 33.2001 312 82.8001 331.2C91.6001 334.4 100.8 337.6 110.4 340.4C108 350 106 359.6 104.4 368.8C96.0001 421.6 105.2 458.8 130.8 473.2C138.4 477.6 146.8 479.6 156.4 479.6C184.8 479.6 220.4 458.8 256 424C292 458.8 327.6 479.6 355.6 479.6C365.2 479.6 373.6 477.6 381.2 473.2C406.8 458.4 416 421.2 407.6 368.8C406 359.6 404 350 401.6 340.4C411.2 337.6 420.4 334.8 429.2 331.2C479.2 312 506.4 285.6 506.4 256C506.4 226.4 479.2 200 429.2 180.8ZM370 58.8004C386.4 68.4004 392 98.0004 385.2 140C384 148.4 382 157.2 379.6 166.4C358.8 161.6 336.8 158.4 313.6 156.4C300 137.2 286 120 272 104.4C301.6 75.2004 331.6 55.2004 356 55.2004C361.2 55.2004 366 56.4004 370 58.8004ZM325.2 296C318 308.8 309.6 321.6 300.8 334.4C286 335.6 271.2 336 256 336C240.4 336 225.6 335.6 211.2 334.4C202.4 321.6 194.4 308.8 187.2 296C179.6 282.8 172.4 269.2 166 256C172.4 242.8 179.6 229.2 187.2 216C194.4 203.2 202.8 190.4 211.6 177.6C226.4 176.4 241.2 176 256.4 176C272 176 286.8 176.4 301.2 177.6C310 190.4 318 203.2 325.2 216C332.8 229.2 340 242.8 346.4 256C339.6 269.2 332.8 282.4 325.2 296ZM358.4 282.8C364.4 296.8 369.2 310.4 373.6 324C360 327.2 345.6 329.6 330.4 331.6C335.2 324 340.4 316 344.8 307.6C349.6 299.2 354 290.8 358.4 282.8ZM256 391.2C246.4 380.8 237.2 369.6 228.4 358C237.6 358.4 246.8 358.8 256 358.8C265.2 358.8 274.4 358.4 283.6 358C274.8 369.6 265.6 380.8 256 391.2ZM181.6 331.2C166.4 329.2 152 326.8 138.4 323.6C142.8 310.4 147.6 296.4 153.6 282.4C158 290.4 162.4 298.8 167.2 306.8C172 315.6 176.8 323.2 181.6 331.2ZM153.6 229.2C147.6 215.2 142.8 201.6 138.4 188C152 184.8 166.4 182.4 181.6 180.4C176.8 188 171.6 196 167.2 204.4C162.4 212.8 158 221.2 153.6 229.2ZM256 120.8C265.6 131.2 274.8 142.4 283.6 154C274.4 153.6 265.2 153.2 256 153.2C246.8 153.2 237.6 153.6 228.4 154C237.2 142.4 246.4 131.2 256 120.8ZM344.8 204.8L330.4 180.8C345.6 182.8 360 185.2 373.6 188.4C369.2 201.6 364.4 215.6 358.4 229.6C354 221.2 349.6 212.8 344.8 204.8ZM126.8 140C120 98.0004 125.6 68.4004 142 58.8004C146 56.4004 150.8 55.2004 156 55.2004C180 55.2004 210 74.8004 240 104.4C226 119.6 212 137.2 198.4 156.4C175.2 158.4 153.2 162 132.4 166.4C130 157.2 128.4 148.4 126.8 140ZM28.0001 256C28.0001 237.2 50.8001 217.2 90.8001 202.4C98.8001 199.2 107.6 196.4 116.4 194C122.8 214 130.8 235.2 140.4 256.4C130.8 277.6 122.4 298.4 116.4 318.4C61.2001 302.4 28.0001 278.4 28.0001 256ZM142 453.2C125.6 443.6 120 414 126.8 372C128 363.6 130 354.8 132.4 345.6C153.2 350.4 175.2 353.6 198.4 355.6C212 374.8 226 392 240 407.6C210.4 436.8 180.4 456.8 156 456.8C150.8 456.8 146 455.6 142 453.2ZM385.2 372C392 414 386.4 443.6 370 453.2C366 455.6 361.2 456.8 356 456.8C332 456.8 302 437.2 272 407.6C286 392.4 300 374.8 313.6 355.6C336.8 353.6 358.8 350 379.6 345.6C382 354.8 383.6 363.6 385.2 372ZM421.2 309.6C413.2 312.8 404.4 315.6 395.6 318C389.2 298 381.2 276.8 371.6 255.6C381.2 234.4 389.6 213.6 395.6 193.6C450.8 209.6 484 233.6 484 256C484 274.8 460.8 294.8 421.2 309.6Z" fill="#61DAFB"/>
</svg>
