<svg width="512" height="512" viewBox="0 0 512 512" fill="none" xmlns="http://www.w3.org/2000/svg">
<path d="M354.762 356.161C373.657 354.11 387.991 337.019 387.339 316.511C386.687 296.003 370.399 279.596 350.853 279.596H349.55C329.352 280.28 313.715 298.054 314.366 319.246C315.018 329.5 318.927 338.387 324.791 344.539C302.639 390.341 268.758 423.838 217.938 451.866C183.406 471.007 147.572 477.843 111.737 473.058C82.4175 468.956 59.6136 455.284 45.2797 432.725C24.4304 399.228 22.4757 362.997 40.0674 326.765C52.4466 300.788 71.9929 281.647 84.3722 272.077C81.766 263.19 77.8568 248.15 75.9021 237.212C-18.5714 308.991 -8.79827 406.064 19.8696 451.866C41.3704 486.046 85.0237 507.238 133.238 507.238C146.269 507.238 159.299 505.871 172.33 502.453C255.728 485.363 318.927 433.408 354.762 356.161ZM469.433 271.393C419.916 210.552 346.943 177.055 263.546 177.055H253.121C247.258 164.75 234.878 156.547 221.196 156.547H219.893C199.695 157.23 184.058 175.004 184.71 196.196C185.361 216.704 201.65 233.111 221.196 233.111H222.499C236.833 232.427 249.212 222.857 254.425 209.868H266.152C315.669 209.868 362.58 224.908 404.931 254.303C437.508 276.862 460.963 306.257 473.994 341.805C485.07 370.516 484.419 398.544 472.691 422.471C454.448 458.702 423.825 478.527 383.43 478.527C357.368 478.527 332.61 470.323 319.579 464.171C312.412 471.007 299.381 481.945 290.259 488.781C318.276 502.453 346.943 509.973 374.308 509.973C436.856 509.973 483.116 473.741 500.707 437.51C519.602 397.861 518.299 329.5 469.433 271.393ZM138.45 367.782C139.102 388.29 155.39 404.697 174.936 404.697H176.24C196.437 404.013 212.074 386.239 211.423 365.047C210.771 344.539 194.483 328.133 174.936 328.133H173.633C172.33 328.133 170.376 328.133 169.073 328.816C142.359 282.331 131.283 231.744 135.192 177.055C137.799 136.038 150.829 100.491 173.633 71.0954C192.528 45.8018 229.014 33.4969 253.773 32.8133C322.836 31.446 352.156 121.682 354.11 157.914C362.58 159.965 376.914 164.75 386.687 168.168C378.869 57.4232 313.715 0 251.167 0C192.528 0 138.45 44.4346 116.949 110.061C86.9783 197.563 106.525 281.647 143.011 347.957C139.753 352.742 137.799 360.262 138.45 367.782Z" fill="#764ABC"/>
</svg>
