<svg width="684" height="512" viewBox="0 0 684 512" fill="none" xmlns="http://www.w3.org/2000/svg">
<g clip-path="url(#clip0_237_206)">
<path fill-rule="evenodd" clip-rule="evenodd" d="M587.986 293.993C564.084 294.104 543.406 299.885 526.063 308.39C519.671 295.716 513.279 284.655 512.167 276.372C510.944 266.756 509.499 260.919 510.944 249.413C512.389 237.963 519.059 221.676 519.059 220.342C518.948 219.119 517.614 213.283 503.829 213.116C490.099 213.005 478.204 215.784 476.87 219.397C475.536 223.01 472.868 231.292 471.145 239.797C468.754 252.359 443.685 296.772 429.4 320.118C424.731 311.058 420.728 303.053 419.95 296.661C418.727 287.045 417.282 281.208 418.727 269.702C420.172 258.251 426.843 241.965 426.843 240.631C426.732 239.408 425.398 233.571 411.612 233.405C397.883 233.293 385.987 236.073 384.653 239.686C383.319 243.299 381.874 251.803 378.928 260.086C376.149 268.368 342.797 342.519 334.126 361.863C329.735 371.757 325.844 379.595 323.064 384.931C320.285 390.267 322.953 385.32 322.675 385.876C320.285 390.434 318.951 392.936 318.951 392.936V393.047C317.061 396.382 315.06 399.606 314.171 399.606C313.504 399.606 312.169 390.657 314.448 378.372C319.396 352.636 331.402 312.447 331.235 311.002C331.235 310.335 333.514 303.276 323.509 299.663C313.781 296.05 310.28 302.053 309.501 302.053C308.723 302.053 308.056 304.165 308.056 304.165C308.056 304.165 318.84 258.918 287.378 258.918C267.645 258.918 240.408 280.375 226.957 299.996C218.396 304.665 200.275 314.56 181.043 325.065C173.705 329.068 166.09 333.348 158.92 337.183L157.474 335.571C119.287 295.049 48.6932 266.256 51.6392 211.559C52.6954 191.66 59.6436 139.242 187.213 75.7635C291.658 23.7353 375.315 38.0208 389.878 69.7602C410.556 115.118 345.187 199.442 236.573 211.559C195.217 216.229 173.483 200.22 167.98 194.217C162.255 187.935 161.421 187.658 159.309 188.88C155.862 190.77 157.975 196.329 159.309 199.664C162.533 208.057 175.873 223.01 198.552 230.459C218.452 237.018 266.978 240.575 325.677 217.896C391.435 192.438 442.796 121.677 427.732 62.5897C412.39 2.50153 312.614 -17.287 218.285 16.2312C162.144 36.2421 101.277 67.4812 57.5313 108.448C5.50309 156.974 -2.77919 199.386 0.667126 217.007C12.7848 279.874 99.3874 320.785 134.073 351.08C132.35 352.024 130.738 352.969 129.292 353.748C111.95 362.308 45.9139 396.827 29.3494 433.402C10.6726 474.758 32.2954 504.552 46.6921 508.554C91.2718 520.949 136.908 498.66 161.588 461.973C186.157 425.286 183.211 377.649 171.871 355.915L171.482 355.137L185.101 347.133C193.883 341.908 202.554 337.128 210.17 333.014C205.89 344.632 202.832 358.361 201.22 378.372C199.33 401.829 208.947 432.29 221.62 444.297C227.234 449.522 233.905 449.633 238.018 449.633C252.693 449.633 259.363 437.515 266.7 422.952C275.761 405.22 283.765 384.653 283.765 384.653C283.765 384.653 273.76 440.295 301.108 440.295C311.113 440.295 321.119 427.343 325.677 420.673V420.784C325.677 420.784 325.955 420.395 326.455 419.45C327.011 418.616 327.567 417.782 328.067 416.893V416.615C332.069 409.667 341.018 393.825 354.359 367.533C371.591 333.626 388.1 291.214 388.1 291.214C388.1 291.214 389.712 301.608 394.659 318.673C397.605 328.79 403.997 339.907 408.944 350.69C404.942 356.305 402.552 359.473 402.552 359.473L402.663 359.584C399.439 363.864 395.882 368.367 392.102 372.925C378.483 389.211 362.197 407.721 360.084 413.058C357.527 419.339 358.083 424.008 363.03 427.732C366.643 430.4 373.036 430.956 379.817 430.4C392.102 429.622 400.606 426.509 404.886 424.675C411.557 422.285 419.172 418.672 426.509 413.336C439.85 403.441 447.965 389.434 447.187 370.757C446.798 360.473 443.463 350.357 439.294 340.741C440.517 339.017 441.684 337.294 442.907 335.404C463.974 304.61 480.261 270.703 480.261 270.703C480.261 270.703 481.873 281.097 486.82 298.162C489.377 306.833 494.435 316.283 498.937 325.621C479.205 341.741 466.809 360.418 462.529 372.702C454.636 395.381 460.806 405.665 472.423 408.055C477.648 409.111 485.097 406.721 490.711 404.331C497.659 402.052 506.052 398.216 513.779 392.435C527.119 382.541 539.904 368.811 539.237 350.301C538.848 341.741 536.569 333.348 533.512 325.343C550.299 318.395 572.088 314.393 599.659 317.728C659.024 324.676 670.753 361.752 668.529 377.205C666.25 392.658 653.855 401.218 649.741 403.886C645.628 406.443 644.294 407.332 644.683 409.222C645.239 412.001 647.073 411.89 650.686 411.334C655.634 410.556 681.926 398.661 682.982 370.09C684.594 333.626 649.741 293.604 587.986 293.993ZM130.126 448.355C110.504 469.811 82.8784 477.982 71.1498 471.033C58.4763 463.696 63.4234 432.068 87.5476 409.278C102.222 395.381 121.288 382.597 133.85 374.703C136.63 372.98 140.91 370.423 145.968 367.366C146.746 366.81 147.302 366.588 147.302 366.588C148.247 366.032 149.303 365.365 150.359 364.698C159.309 397.271 150.804 425.787 130.126 448.355ZM273.537 350.857C266.756 367.533 252.304 410.389 243.632 407.944C236.184 405.943 231.626 373.536 242.187 341.519C247.523 325.399 258.863 306.166 265.533 298.718C276.317 286.711 288.101 282.709 290.991 287.656C294.493 293.993 277.817 340.407 273.537 350.857ZM391.879 407.388C388.933 408.833 386.265 409.945 385.098 409.111C384.153 408.555 386.321 406.554 386.321 406.554C386.321 406.554 401.107 390.657 406.999 383.319C410.334 379.039 414.336 374.092 418.616 368.533V370.145C418.56 389.378 400.162 402.218 391.879 407.388ZM483.151 386.599C481.039 384.987 481.261 380.04 488.487 364.587C491.267 358.472 497.715 348.189 508.776 338.462C510.11 342.464 510.888 346.355 510.777 349.912C510.61 373.925 493.546 382.875 483.151 386.599Z" fill="#CF649A"/>
</g>
<defs>
<clipPath id="clip0_237_206">
<rect width="683.037" height="512" fill="white"/>
</clipPath>
</defs>
</svg>
