<svg width="512" height="512" viewBox="0 0 512 512" fill="none" xmlns="http://www.w3.org/2000/svg">
<g clip-path="url(#clip0_241_496)">
<path d="M494.63 220.87L405.798 67.0145C393.254 45.3184 369.894 31.8145 344.806 31.8145H167.142C142.054 31.8145 118.694 45.3184 106.15 67.0145L17.3184 220.87C4.7744 242.566 4.7744 269.574 17.3184 291.27L106.15 445.126C118.694 466.886 142.054 480.326 167.142 480.326H344.806C369.894 480.326 393.254 466.886 405.798 445.126L494.63 291.27C507.174 269.574 507.174 242.566 494.63 220.87ZM351.206 344.07C328.294 369.478 296.87 384.454 262.694 386.246C260.39 386.374 258.15 386.438 255.846 386.438C224.166 386.438 194.022 374.918 170.278 353.542C117.798 306.31 113.51 225.158 160.806 172.614C164.454 168.582 168.358 164.742 172.518 161.222C180.518 154.31 192.614 155.206 199.59 163.27C206.502 171.27 205.542 183.43 197.478 190.342C194.662 192.774 191.91 195.462 189.35 198.342C156.262 235.078 159.206 291.91 196.006 324.998C213.798 341.062 236.71 349.19 260.71 347.91C284.646 346.63 306.662 336.134 322.662 318.342C355.75 281.606 352.742 224.774 316.006 191.686C308.134 184.582 307.494 172.422 314.598 164.55C321.702 156.678 333.798 156.038 341.734 163.142C394.214 210.374 398.438 291.526 351.206 344.07ZM236.774 249.478V140.934C236.774 130.31 245.414 121.734 255.974 121.734C266.598 121.734 275.174 130.31 275.174 140.934V249.478C275.174 260.038 266.598 268.678 255.974 268.678C250.726 268.678 245.862 266.502 242.406 263.046C238.95 259.59 236.774 254.726 236.774 249.478ZM333.542 823.814L293.862 756.614C290.278 750.534 285.222 745.542 279.334 742.086L278.31 740.294H276.134C270.566 737.606 264.358 736.134 258.022 736.134H177.19C170.79 736.134 164.646 737.606 159.078 740.294H156.262L154.854 742.662C149.414 746.118 144.742 750.854 141.35 756.614L101.67 823.814C98.0224 830.022 96.1024 836.87 95.9104 843.782L95.2704 844.934L95.9104 846.086C96.1024 852.998 98.0224 859.847 101.67 866.055L141.35 933.255C144.742 939.015 149.414 943.751 154.918 947.207L156.262 949.51H158.95C164.582 952.262 170.726 953.734 177.19 953.734H258.022C264.422 953.734 270.63 952.262 276.262 949.51H278.31L279.27 947.846C285.222 944.326 290.278 939.399 293.862 933.255L333.542 866.055C337.382 859.527 339.302 852.23 339.302 844.934C339.302 837.638 337.382 830.342 333.542 823.814ZM189.926 877.383C206.95 892.743 233.318 891.334 248.614 874.31C263.974 857.286 262.566 830.918 245.542 815.622C241.574 812.038 241.254 805.958 244.838 802.054C248.358 798.086 254.438 797.766 258.406 801.35C283.302 823.75 285.286 862.279 262.886 887.175C250.918 900.487 234.342 907.271 217.702 907.271C203.174 907.271 188.646 902.087 177.062 891.655C152.166 869.255 150.118 830.726 172.582 805.83C174.31 803.91 176.166 802.054 178.086 800.39C182.118 796.934 188.198 797.446 191.654 801.414C195.11 805.446 194.662 811.526 190.63 814.982C189.286 816.134 188.006 817.35 186.79 818.694C171.494 835.718 172.902 862.087 189.926 877.383ZM208.102 835.334V790.534C208.102 785.222 212.454 780.934 217.702 780.934C223.014 780.934 227.302 785.222 227.302 790.534V835.334C227.302 840.646 223.014 844.934 217.702 844.934C212.454 844.934 208.102 840.646 208.102 835.334ZM301.734 1263.88C301.286 1258.95 299.814 1254.15 297.254 1249.73L269.542 1201.73C266.982 1197.25 263.526 1193.54 259.43 1190.66L257.51 1187.33H253.67C249.126 1185.22 244.198 1184.13 239.078 1184.13H183.654C178.534 1184.13 173.606 1185.22 169.062 1187.33H165.222L163.302 1190.66C159.206 1193.54 155.75 1197.25 153.19 1201.73L125.478 1249.73C122.918 1254.15 121.446 1258.95 120.998 1263.88L119.078 1267.21L120.934 1270.47C121.382 1275.46 122.854 1280.45 125.478 1284.93L153.19 1332.93C155.814 1337.48 159.398 1341.32 163.558 1344.2L165.222 1347.08H168.486C173.158 1349.32 178.342 1350.53 183.654 1350.53H239.078C244.39 1350.53 249.574 1349.32 254.246 1347.08H257.51L259.174 1344.2C263.334 1341.32 266.918 1337.48 269.542 1332.93L297.254 1284.93C299.878 1280.45 301.35 1275.46 301.798 1270.47L303.654 1267.21L301.734 1263.88ZM192.358 1289.8C204.006 1300.23 221.99 1299.33 232.422 1287.69C242.918 1276.04 241.958 1258.12 230.31 1247.62C227.366 1244.93 227.174 1240.39 229.798 1237.45C232.486 1234.5 237.03 1234.25 239.974 1236.93C257.51 1252.68 258.918 1279.81 243.174 1297.35C235.494 1305.8 224.998 1310.85 213.606 1311.43C212.838 1311.49 212.07 1311.49 211.302 1311.49C200.742 1311.49 190.63 1307.65 182.758 1300.49C174.246 1292.87 169.254 1282.37 168.614 1270.98C168.038 1259.53 171.942 1248.58 179.558 1240.07C180.774 1238.73 182.054 1237.45 183.462 1236.29C186.47 1233.67 191.014 1234.05 193.638 1237.06C196.198 1240.07 195.878 1244.61 192.87 1247.17C191.91 1248.01 191.078 1248.84 190.246 1249.73C185.19 1255.37 182.63 1262.6 183.014 1270.21C183.398 1277.77 186.726 1284.74 192.358 1289.8ZM204.134 1266.37V1229.7C204.134 1225.73 207.398 1222.53 211.366 1222.53C215.334 1222.53 218.534 1225.73 218.534 1229.7V1266.37C218.534 1270.34 215.334 1273.61 211.366 1273.61C207.398 1273.61 204.134 1270.34 204.134 1266.37ZM253.798 1546.57C253.478 1543.43 252.454 1540.36 250.79 1537.54L237.67 1515.21C236.006 1512.45 233.83 1510.09 231.206 1508.29L230.054 1506.37H227.878C224.934 1504.9 221.67 1504.13 218.342 1504.13H191.334C188.006 1504.13 184.742 1504.9 181.798 1506.37H180.134L179.302 1507.78C176.358 1509.57 173.862 1512.13 172.07 1515.21L158.886 1537.54C157.03 1540.68 156.006 1544.07 155.814 1547.59L155.11 1548.81L155.814 1550.02C155.942 1553.61 156.966 1557.13 158.886 1560.33L172.07 1582.66C173.926 1585.8 176.486 1588.42 179.558 1590.28L180.134 1591.24H181.286C184.358 1592.9 187.814 1593.73 191.334 1593.73H218.342C221.926 1593.73 225.382 1592.84 228.454 1591.24H230.054L230.95 1589.77C233.638 1587.97 235.942 1585.54 237.67 1582.66L250.79 1560.33C252.518 1557.45 253.542 1554.25 253.798 1550.98L255.078 1548.81L253.798 1546.57ZM194.47 1561.03C197.542 1563.85 201.382 1565.25 205.606 1565C209.702 1564.81 213.542 1562.95 216.294 1559.88C219.046 1556.87 220.454 1552.9 220.262 1548.74C220.006 1544.65 218.214 1540.87 215.142 1538.05C213.542 1536.65 213.414 1534.21 214.886 1532.68C216.294 1531.08 218.726 1530.95 220.262 1532.36C224.87 1536.52 227.558 1542.15 227.878 1548.36C228.262 1554.5 226.15 1560.45 221.99 1565.06C217.894 1569.67 212.198 1572.36 205.99 1572.68H204.774C199.078 1572.68 193.574 1570.63 189.35 1566.79C184.742 1562.63 181.99 1556.93 181.67 1550.79C181.35 1544.58 183.462 1538.69 187.622 1534.09C188.262 1533.38 188.966 1532.68 189.67 1532.04C191.27 1530.63 193.702 1530.82 195.11 1532.42C196.518 1534.02 196.326 1536.45 194.726 1537.8C194.214 1538.25 193.766 1538.69 193.318 1539.21C190.566 1542.28 189.158 1546.25 189.35 1550.34C189.606 1554.5 191.398 1558.28 194.47 1561.03ZM200.934 1548.93V1530.05C200.934 1527.94 202.662 1526.21 204.774 1526.21C206.95 1526.21 208.614 1527.94 208.614 1530.05V1548.93C208.614 1551.05 206.95 1552.77 204.774 1552.77C202.662 1552.77 200.934 1551.05 200.934 1548.93Z" fill="white"/>
<path d="M489.062 224.071L400.23 70.2148C388.838 50.4388 367.654 38.2148 344.806 38.2148H167.142C144.294 38.2148 123.11 50.4388 111.718 70.2148L22.8864 224.071C11.4304 243.911 11.4304 268.295 22.8864 288.071L111.718 441.927C123.11 461.767 144.294 473.927 167.142 473.927H344.806C367.654 473.927 388.838 461.767 400.23 441.927L489.062 288.071C500.518 268.295 500.518 243.911 489.062 224.071ZM351.206 344.071C328.294 369.479 296.87 384.455 262.694 386.247C260.39 386.375 258.15 386.439 255.846 386.439C224.166 386.439 194.022 374.919 170.278 353.543C117.798 306.311 113.51 225.159 160.806 172.615C164.454 168.583 168.358 164.743 172.518 161.223C180.518 154.311 192.614 155.207 199.59 163.271C206.502 171.271 205.542 183.431 197.478 190.343C194.662 192.775 191.91 195.463 189.35 198.343C156.262 235.079 159.206 291.911 196.006 324.999C213.798 341.063 236.71 349.191 260.71 347.911C284.646 346.631 306.662 336.135 322.662 318.343C355.75 281.607 352.742 224.775 316.006 191.687C308.134 184.583 307.494 172.423 314.598 164.551C321.702 156.679 333.798 156.039 341.734 163.143C394.214 210.375 398.438 291.527 351.206 344.071ZM275.174 140.935V249.479C275.174 260.039 266.598 268.679 255.974 268.679C250.726 268.679 245.862 266.503 242.406 263.047C238.95 259.591 236.774 254.727 236.774 249.479V140.935C236.774 130.311 245.414 121.735 255.974 121.735C266.598 121.735 275.174 130.311 275.174 140.935Z" fill="#6CB52D"/>
<path d="M494.63 220.87L405.798 67.0145C393.254 45.3184 369.894 31.8145 344.806 31.8145H167.142C142.054 31.8145 118.694 45.3184 106.15 67.0145L17.3184 220.87C4.7744 242.566 4.7744 269.574 17.3184 291.27L106.15 445.126C118.694 466.886 142.054 480.326 167.142 480.326H344.806C369.894 480.326 393.254 466.886 405.798 445.126L494.63 291.27C507.174 269.574 507.174 242.566 494.63 220.87ZM344.806 467.526H167.142C146.598 467.526 127.526 456.518 117.222 438.726L28.3904 284.87C18.1504 267.142 18.1504 245.062 28.3904 227.27L117.222 73.4145C127.526 55.6225 146.598 44.6145 167.142 44.6145H344.806C365.35 44.6145 384.422 55.6225 394.726 73.4145L483.558 227.27C493.798 245.062 493.798 267.142 483.558 284.87L394.726 438.726C384.422 456.518 365.35 467.526 344.806 467.526Z" fill="#6CB52D"/>
</g>
<defs>
<clipPath id="clip0_241_496">
<rect width="512" height="512" fill="white"/>
</clipPath>
</defs>
</svg>
