<svg width="859" height="512" viewBox="0 0 859 512" fill="none" xmlns="http://www.w3.org/2000/svg">
<g clip-path="url(#clip0_237_212)">
<path fill-rule="evenodd" clip-rule="evenodd" d="M429.217 0C314.787 0 243.251 56.8889 214.608 170.667C257.549 113.801 307.615 92.4706 364.806 106.675C397.5 114.779 420.694 138.322 446.681 164.379C488.597 206.854 537.499 255.965 643.825 255.965C758.255 255.965 829.791 199.076 858.433 85.2984C815.539 142.211 765.473 163.541 708.235 149.29C675.541 141.186 652.348 117.643 626.36 91.5858C584.305 48.9016 535.612 0 429.217 0ZM214.608 255.965C100.178 255.965 28.6424 312.854 0 426.632C42.9869 369.766 93.0528 348.436 150.198 362.64C182.892 370.744 206.085 394.287 232.073 420.414C273.989 462.819 322.89 512 429.217 512C543.646 512 615.182 455.111 643.825 341.333C600.931 398.199 550.865 419.483 493.627 405.185C460.933 397.081 437.739 373.539 411.752 347.481C369.836 305.006 320.934 255.825 214.608 255.825V255.965Z" fill="#06B6D4"/>
</g>
<defs>
<clipPath id="clip0_237_212">
<rect width="858.433" height="512" fill="white"/>
</clipPath>
</defs>
</svg>
