<svg width="520" height="520" viewBox="0 0 520 520" fill="none" xmlns="http://www.w3.org/2000/svg">
<g clip-path="url(#clip0_237_214)">
<path d="M8.125 261.728V457.728C8.125 490.865 34.9879 517.728 68.125 517.728H460.125C493.262 517.728 520.125 490.865 520.125 457.728V65.7275C520.125 32.5905 493.262 5.72754 460.125 5.72754H68.125C34.9879 5.72754 8.125 32.5905 8.125 65.7275V261.728ZM420.715 241.29C420.715 241.268 420.735 241.252 420.756 241.257C433.003 244.108 444.133 250.517 452.746 259.68C453.789 260.765 454.802 261.878 455.784 263.017C462.638 270.964 460.711 279.485 452.007 285.347C444.844 290.172 436.09 295.902 429.44 300.025C428.948 300.353 426.982 298.223 424.811 294.987C422.351 290.742 418.856 287.19 414.651 284.661C410.447 282.133 405.67 280.711 400.768 280.528C385.244 279.463 375.25 287.614 375.331 301.008C375.203 304.343 375.967 307.652 377.543 310.593C380.943 317.679 387.292 321.898 407.198 330.499C443.858 346.269 459.545 356.673 469.294 371.459C480.189 387.843 482.606 414.304 475.233 433.882C467.041 455.182 446.97 469.64 418.585 474.433C405.621 475.918 392.522 475.78 379.591 474.023C359.857 470.822 341.654 461.426 327.613 447.194C324.59 443.856 319.73 437.078 316.786 432.389C314.826 429.269 315.765 426.204 319.011 424.462V424.462L337.853 413.648L347.81 407.879C350.483 406.33 353.9 407.115 355.63 409.675V409.675C360.814 417.091 367.412 423.411 375.045 428.271C391.429 436.873 413.793 435.685 424.852 425.731C428.565 422.084 430.882 417.25 431.398 412.071C431.914 406.892 430.598 401.696 427.678 397.387C423.582 391.694 415.39 386.901 392.494 376.907C366.074 365.52 354.688 358.475 344.284 347.252C337.789 339.846 332.994 331.108 330.234 321.652C328.176 310.849 327.872 299.784 329.333 288.884C334.781 263.366 353.909 245.548 381.844 240.265C394.768 238.665 407.859 239.022 420.676 241.322C420.696 241.326 420.715 241.31 420.715 241.29V241.29ZM300.538 262.711V262.711C300.538 274.293 291.149 283.682 279.567 283.682H267.299C248.942 283.682 234.06 298.564 234.06 316.921V449.468C234.06 462.486 223.507 473.04 210.488 473.04V473.04C197.469 473.04 186.915 462.486 186.915 449.468V316.962C186.915 298.559 171.997 283.641 153.594 283.641H140.753C129.443 283.641 120.273 274.472 120.273 263.161V263.161C120.242 261.904 120.221 260.646 120.213 259.388C120.138 248.036 126.849 241.796 138.202 241.719C154.676 241.607 181.279 241.567 210.959 241.616H279.197C290.887 241.616 300.402 251.021 300.538 262.711V262.711Z" fill="#007ACC"/>
</g>
<defs>
<clipPath id="clip0_237_214">
<rect width="520" height="520" fill="white"/>
</clipPath>
</defs>
</svg>
